# xmcd
#
# Track frame offsets: 
#        150
#        6447
#        25115
#        31840
#        43622
#        47550
#        63036
#        63899
#        64818
#        82518
#        85854
#        97455
#        103320
#        115332
#        139413
#        145752
#        159318
#        166026
#        177687
#        181594
#        197176
#        197984
#        198879
#        216569
#        219870
#        231447
#        237277
#        249516
#        273935
#        293119
#        308806
#        325075
#        340880
#
# Disc length: 4750 seconds
#
# Revision: 0
# Processed by: cddbd v1.5.2PL0 Copyright (c) Steve Scherf et al.
# Submitted via: ExactAudioCopy v0.95b3
#
DISCID=dc128c21
DTITLE=The Monkees - The Monkees Complete 17 of 28 
DYEAR=1900
DGENRE=
TTITLE0=Opening Ceremony
TTITLE1=Porpoise Song (Theme from ''Head'')
TTITLE2=Ditty Diego - War Chant
TTITLE3=Circle Sky (Alternate Version)
TTITLE4=Supplicio
TTITLE5=Can You Dig It?
TTITLE6=Gravy
TTITLE7=Superstitious
TTITLE8=As We Go Along
TTITLE9=Dandruff?
TTITLE10=Daddy's Song
TTITLE11=Poll
TTITLE12=Long Title: Do I Have To Do This All Over Again?
TTITLE13=Swami-Plus Strings, etc.
TTITLE14=Opening Ceremony (mono)
TTITLE15=Porpoise Song (mono)
TTITLE16=Ditty Diego - War Chant (mono)
TTITLE17=Circle Sky (mono)
TTITLE18=Supplicio (mono)
TTITLE19=Can You Dig It? (mono)
TTITLE20=Gravy (mono)
TTITLE21=Superstitious (mono)
TTITLE22=As We Go Along (mono)
TTITLE23=Dandruff (mono)
TTITLE24=Daddy's Song (mono)
TTITLE25=Poll (mono)
TTITLE26=Long Title: Do I Have To Do This All Over Again? (mono)
TTITLE27=Swami Plus Strings, Etc. (mono)
TTITLE28=As We Go Along (alt. mix)
TTITLE29=Can You Dig It? (alt. mix 1)
TTITLE30=Can You Dig It? (alt. mix 2 from acetate)
TTITLE31=Can You Dig It? (alt. mix 3)
TTITLE32=Can You Dig It? (alt. mix 4)
EXTD=
EXTT0=
EXTT1=
EXTT2=
EXTT3=
EXTT4=
EXTT5=
EXTT6=
EXTT7=
EXTT8=
EXTT9=
EXTT10=
EXTT11=
EXTT12=
EXTT13=
EXTT14=
EXTT15=
EXTT16=
EXTT17=
EXTT18=
EXTT19=
EXTT20=
EXTT21=
EXTT22=
EXTT23=
EXTT24=
EXTT25=
EXTT26=
EXTT27=
EXTT28=
EXTT29=
EXTT30=
EXTT31=
EXTT32=
PLAYORDER=
